<?xml version='1.0' encoding='utf-8'?>
<svg xmlns="http://www.w3.org/2000/svg" enable-background="new 0 0 519.891 927.219" version="1.1" viewBox="0 0 519.89 927.22"> <path d="m437.91 0.546c-33.601 3.5-68.5 18.2-99.101 41.7-38.5 29.4-69.699 73.7-84.9 120.3-5 15.1-6.7 18.9-7.7 16.2-0.7-1.9-6.9-1.4-11.4 0.9-2.3 1.1-4.2 1.9-4.4 1.7s-1.2-5-2.4-10.7c-12.5-61.6-61.5-127.5-114.9-154.6-18.3-9.3-36.4-13.5-57.7-13.6-30.3-0.1-49.9 11.1-54.5 31-1.9 8.2-0.7 24.2 2.9 40 7.1 30.6 18.8 56.2 36.4 79.7 16.9 22.6 30.2 34.4 62.9 56 25.2 16.7 34 23.8 40.4 32.6l3.7 4.9-5 7.2c-13.3 19-19.4 38-22.8 70.3-3 29.6-7.1 37.5-26.4 51.7-16 11.7-24 20.4-22.6 24.8 0.4 1.3 0.1 2.7-1 3.9-1.4 1.6-3.4 1.8-16.7 1.8-8.2 0.1-15.3 0.3-15.6 0.6-0.3 0.301 6.3 0.601 14.6 0.601 12.5 0 15.2 0.3 15.2 1.399 0 0.801 0.8 1.601 1.8 1.801 1.5 0.3 1.7 1.699 1.7 12.3v12l-16.5 5.6c-16 5.5-24.4 8.8-22.6 8.9 0.5 0 9.2-2.7 19.4-6 10.1-3.4 18.9-5.9 19.4-5.8 0.5 0.199 2.8 3.899 5.1 8.3 3.1 5.8 5.2 8.399 7.8 9.899 2 1.2 6.7 4.5 10.5 7.4s11.9 7.8 17.9 10.8c6.1 3.101 10.9 6 10.7 6.601-0.6 2.2-14.9 26.1-21 35.1-18.7 27.5-20.8 32.4-20 46.9 0.5 9.899 1.2 11.6 3.8 9.3 1.6-1.5 1.7-1 2.3 8.7 1 18.7 7.8 37 17.7 48l5.1 5.7-4.6 6.3c-5.6 7.6-10 16.6-11.5 23.3-0.9 4.1-1.8 14.4-2 24.1 0 1.2-2.5 5-5.6 8.5-9 10-13.4 22.301-8.5 23.601 1.7 0.399 1.9 1.7 2.3 13.6 0.5 15.5 2.8 25 6.1 24.5 1.5-0.2 2.3 0.8 3.7 5.3 2.4 7.801 10.8 23.601 17.7 33.2 7 9.7 20.9 23.8 27 27.4l4.4 2.6-8.2 4.601c-17 9.5-24.8 20.399-25.7 35.6-0.4 7.4-0.8 8.3-4.3 13.1-5.1 6.7-5.7 9.9-2.7 14.4s10.5 9.5 17.1 11.5c2.9 0.9 9.7 2.3 15.2 3.1 5.5 0.801 11.8 1.9 14 2.5 2.2 0.601 10.3 1.5 18 2.101 13.9 1 14.1 1 32-2.5 31.4-6.2 41.7-7.2 74-7.2 33.301 0 35.801 0.4 39.7 6.3 4.601 6.9 16.7 11.8 34.801 14.101 14.1 1.8 52.8 3.3 65 2.6 27.3-1.6 53.6-8.8 60.699-16.7 2.5-2.7 2.301-8.6-0.5-12.5-1.199-1.7-2.199-3.399-2.199-3.8 0-1.7 10.5-4.9 26.699-8.1 25.9-5.2 31.4-8.601 24.601-15-7.101-6.801-27.2-13.4-62.2-20.5-8-1.601-14.6-3.101-14.8-3.301-0.2-0.199 2.399-2.399 5.899-4.899 21.2-15.101 42.7-44.2 46.9-63.4 1.5-6.899 1.5-6.899 3.3-5.399 1.2 1 1.8 0.199 3.601-4.601 7.199-19.2 6-32.399-4-43.3l-3.9-4.2 1.9-4.399c3.199-7.301 5-18.601 5-30.7 0-6.2-0.2-11.601-0.5-11.9-0.301-0.3-2.7 0.601-5.4 1.9-7 3.5-16.8 5-22.1 3.399-7.101-2.1-9-5.1-17.301-27.699-4.399-12-12.199-26-21.3-38l-7.399-9.801v-12c0-6.6 0.399-11.6 0.8-11.1 0.5 0.6 1.8 2.3 2.899 3.8 1.2 1.5 2.4 2.4 2.601 2 1.1-1.7 2.7-13 2.7-18.7 0-7.899-1.2-12.3-6.2-22.399l-4.101-8.2 2.101-2.3c1.2-1.3 2.2-2.7 2.2-3.101 0-0.399-5.101-5.8-11.2-12-6.2-6.1-16.101-17.399-22-25.1-5.9-7.7-11.8-15.3-13.101-17l-2.5-3 9.7-5c11.3-5.9 23.5-13.601 27.4-17.3 1.899-1.801 2.7-3.601 2.7-5.9 0-2.1 0.6-3.6 1.5-4 4-1.5 7.6-15.9 6.699-27.1-0.399-6.2-0.399-6.301 1.9-5.801 11.3 2.7 31.3 6.601 31.6 6.2 0.4-0.399-21.1-5.7-28.899-7.1-3.5-0.7-3.7-1-4.8-5.8-0.601-2.9-2.2-6.9-3.601-9.1l-2.6-3.8 2.7-2.8 2.6-2.7-8.3-8.8c-4.601-4.9-12.601-12.1-17.8-16-16.4-12.5-18.4-15.6-22.5-36.5-7.7-39-13.801-52.7-34-76.6l-3.9-4.7 6-5.6c8.2-7.7 17.4-13.7 37.2-24.1 34.399-18.1 43.5-24.4 62.1-42.4 13.4-13.1 21.4-22.8 32.3-39.1 14.5-21.7 27.7-52.1 32.301-74.3 2.199-10.9 2-23.8-0.601-30.9-4.2-11-15.7-19.4-32.2-23.3-9.698-2.404-26.798-3.204-38.698-2.004z"/> <path d="m476.51 12.846c9.1 2.6 9.8 3.6 2.3 3.7-28 0.1-72.8 20.4-107.6 48.6-18.101 14.8-39.8 39.7-52.601 60.4-14.8 24.2-24.8 53.2-26.399 76.6-0.301 5.2-0.7 9.4-0.801 9.4-0.1 0-4-1.3-8.699-2.9-4.801-1.6-13.1-3.9-18.5-5.2-13.6-3-13.7-3.1-7.1-6.8 3.1-1.8 6.2-3.9 6.799-4.6 1.9-2.2-0.5-4.5-4.699-4.5-1.9 0-3.3-0.3-3.1-0.8 2.9-5.9 4.3-9.9 8.4-22.6 10.601-33.5 32.399-68.8 59-95.1 31.8-31.6 70.3-52.3 107.9-57.9 6.8-1 40.1 0.2 45.1 1.7z" fill="#fff"/> <path d="m75.511 13.646c23.4 4.3 50.8 18.9 71.8 38.1 26.3 24.1 53.3 65.7 64.5 99.5 3.9 11.8 7.1 26.4 7.1 32.6 0 3.2-6.1 11.7-8.4 11.7-0.7 0-1.8 1.7-2.4 3.8-1.5 4.9-4.6 8.2-7.7 8.2-2.3 0-2.5-0.4-2.5-4.6 0-9.5-6.1-28.4-9.1-28.4-0.7 0-0.8 0.7-0.4 1.7 2.2 5.6 3.6 16.6 3.3 24.8-0.6 12.4-1.8 14.5-10.5 17.6l-6.9 2.5 1.3-5c1.7-6.8 1.6-19.6-0.2-29.5-4.7-24.4-26.3-71.9-44.4-97.6-7.7-11-32.4-35.5-44.1-43.8-23.6-16.7-54.1-27.5-67.5-23.8-5.8 1.6-5.4 0.6 1.1-2.7 5.3-2.6 15-5.4 22.9-6.6 4.6-0.7 25.7 0.3 32.1 1.5z" fill="#fff"/> <path d="m495.41 35.946c5.8 2.5 6.699 6.7 4 19.7-5.7 26.8-24.9 65.1-45.2 90.1-10.7 13.1-31.4 31.7-45.8 40.9-2.301 1.5-11.9 6.8-21.5 11.9-9.601 5.1-21.5 11.6-26.5 14.5-9.7 5.8-23.7 16.6-28 21.6l-2.601 3.2-3.5-3.4c-1.8-1.8-3.399-3.9-3.399-4.6 0-0.8 4.399-5.8 9.8-11.1 10.6-10.7 23.899-20.3 45.7-33.2 24.699-14.6 29.8-18.6 38-29.2 4.8-6.3 4.8-6.3 0.899-2.7-5.3 4.9-15.1 10.7-32.399 19.1-40.5 19.7-42.5 20.8-53.4 29-5.9 4.6-11.6 8.9-12.5 9.6-1.7 1.1-1.7 0.8-0.9-5 4.2-32 21.4-70 43.101-95.6 19.5-23.1 49.899-46.1 81.7-61.8 24.198-11.9 43.499-16.7 52.499-13z" fill="#fff"/> <path d="m39.711 37.546c9.9 1.4 18.1 5.8 26.4 14.2 26.9 27.1 72.4 99.5 83.8 133.2 1.6 4.9 2.8 9.1 2.6 9.3-0.2 0.3-3.5-2.2-7.2-5.4-12.9-11-17.8-14.8-16.9-13.3 0.4 0.8 2.1 3.4 3.7 5.7 3.8 5.7 3.5 6.1-1.4 2.1-2.4-1.9-8.8-6.5-14.3-10.2-5.5-3.8-14.9-10.7-20.9-15.3l-10.9-8.5 3.4 4.7c1.9 2.6 11.7 12.7 21.8 22.4 20.9 19.9 31 31.2 38.2 42.1 5.3 8 6.5 11 5.5 13.6-0.5 1.3-3-0.7-11.4-8.8-10.4-10.2-17.1-15-39.4-28.6-26.4-16.1-44.1-32.9-61.2-58-15.7-23.1-31.6-65.6-31.6-84.5 0-6.3 2-9.5 7.5-12.1 6.7-3.2 13.1-4 22.3-2.6z" fill="#fff"/> <path d="m317.41 166.45c-2.4 9.2-3.801 27.8-3.301 43.6l0.5 15.1-7.5-5-7.499-5 0.6-8c0.699-9.7 3.6-20.4 8.2-30.2 3.3-7.1 9.3-16.9 10.1-16.2 0.2 0.2-0.3 2.8-1.1 5.7z" fill="#fff"/> <path d="m247.61 190.05c0.1 0.5-1.7 2.3-4.1 3.8-7.5 4.7-18.2 17.4-16.4 19.3 0.3 0.2 3.1-0.5 6.3-1.6 7.8-2.7 19.2-3.9 28.5-2.9 22.201 2.1 40.701 12.6 64.501 36.4 24.5 24.4 33.899 41.8 40.5 75.3 5.5 27.6 7.6 32 21.5 43 12.6 10 19.399 15.6 19.399 16.3 0.101 0.4-1.899 0.4-4.399 0.1-2.5-0.2-4.5-0.2-4.5 0.2s3 4.4 6.6 8.8c7.1 8.699 11.4 16.6 11.4 21 0 2.699 0 2.699-3.5 1.199-3.9-1.6-10.101-1.899-10.9-0.5-0.4 0.5 1.3 2.4 3.5 4.2 4 3.2 6.9 8 6.9 11.5 0 1.601-0.101 1.601-1.801 0.101-4.6-4.2-14.199-5.801-14.199-2.4 0 0.7 1.3 2 2.899 3 3.7 2.1 8.8 8.5 10.2 12.7 0.9 2.6 0.8 3.399-0.7 5.1-4.6 5.101-37.3 20.801-56.899 27.2-29.9 9.8-67.7 15.101-108.5 15.2-31.4 0-54.9-2.9-85.5-10.7-30.8-7.8-49.2-16.6-61.8-29.6-5.8-5.9-5.7-8.2 0.5-13.801 2.2-1.899 3.8-3.8 3.5-4-0.2-0.3-4 0.301-8.3 1.2-4.4 0.8-8.3 1.601-8.9 1.7-0.5 0.1-1.3-3.6-1.8-8.3-0.7-6.9-0.6-9.101 0.7-11.7 1.4-3 1.4-3.3-0.5-4.6-1.9-1.4-1.9-1.5 1.6-4.601 2-1.7 5.4-4 7.6-5.2 4.7-2.399 4.5-3-1.3-3.799l-4.1-0.6 9.9-7c12.6-8.9 22.3-18.1 25.6-24.2 3.9-7.1 5.6-15.2 7.8-35.6 2.3-22.2 3.2-26.6 7.2-38.7 6.6-20.1 17.5-36.7 29.6-45.1 2.3-1.7 4.2-3.5 4.2-4.1 0-1.1-4.6-0.7-8.5 0.8-1.8 0.6-1.7 0.4 0.4-2 3.5-3.8 16.2-11 26.1-14.7 4.7-1.8 9.4-3.8 10.5-4.6 2.8-1.9 4.5-1.6 4.5 0.6 0 3 2.1 3.7 3.9 1.3 0.9-1.1 3.2-4.9 5.1-8.3 4.6-8.1 13.8-17.4 20.3-20.5 5.299-2.499 14.699-2.999 15.399-0.899z" fill="#fff"/> <path d="m88.511 437.65c1 1.7-2.3 4.601-3.7 3.2-0.7-0.7-0.9-1.9-0.6-2.7 0.7-1.8 3.3-2.1 4.3-0.5z" fill="#fff"/> <path d="m378.11 490.45c2.101 3.199 8.801 12.699 15 21.199 16.301 22.101 26.801 37.601 26.801 39.4 0 0.3-1.601-0.6-3.5-2-3.9-2.6-9.9-4.9-11.601-4.3-0.5 0.2 0.601 2.2 2.5 4.5 7.9 9.2 10.4 22.2 8.7 45.899-1.3 17.801-1.8 18.5-4 4.7-1.2-8-3.8-15.3-5.3-15.3-0.601 0-0.8 1.3-0.4 3.2 0.4 1.8 0.9 7.3 1.3 12.3 1.801 28.3-9.8 46.8-36.8 58.6-4.1 1.801-8.6 4.101-10.1 5.2-4.7 3.101-3.3-0.2 2.2-5.5 2.8-2.6 5-5.3 5-5.8 0-0.6-1.601-1-3.5-1h-3.4l1.4-4c1.6-4.7 0.399-5.3-2.101-1.1-1 1.6-2.6 3.199-3.6 3.399-1 0.3-1.8 1.2-1.8 2 0 1.8-7.4 19.601-12.601 30.2-9.399 19.2-34.899 37.2-41.9 29.5-1.6-1.8-1.699-2.6-0.6-7.6 0.7-3 2.801-10.101 4.7-15.601 1.9-5.6 3.2-10.3 2.9-10.6-1.2-1.2-6.4 6.7-12.2 18.5-7 14.5-8.801 16.3-16 16.3-5.1 0-12.301-3.7-15-7.8-6.8-10.3-5.1-31.101 4.4-55.2 0.6-1.3 0.399-1.3-1.201 0-4.5 3.7-10.799 17.7-12.899 28.5l-1.3 7-0.8-3.9c-0.4-2.1-0.5-7.1-0.2-11 1.5-18 10.3-38.199 24.3-55.399 2.399-3 4.399-5.8 4.399-6.3 0-2-6.699 2.6-12.5 8.5-14.299 14.6-23.699 38.5-25 63.3-0.9 18-1.1 18.2-6.5 13.6-7.4-6.1-10.9-14.8-16-38.8-2.1-9.9-5.5-23.4-7.6-30-2.7-8.7-3.7-13.5-3.5-17.6 0.3-7.9-2.3-18.9-6-25.9-3-5.6-11.4-14.8-12.6-13.7-0.2 0.3 1.3 3.601 3.6 7.4 5.6 9.5 9 18.1 9.7 25l0.5 5.8-4.2-4.8c-4.2-4.8-12.9-11.5-12.9-10 0 0.399 1.8 3.7 4 7.3 7.5 12.2 14.9 34.1 18.6 55 2.1 11.7 2.4 35.6 0.5 41.9-0.7 2.399-2.7 5.8-4.4 7.5l-3.1 3.1-2.3-9.8c-1.2-5.3-3.8-13-5.6-17-3.2-6.9-8.4-14.3-9.4-13.3-0.3 0.3 0.9 4 2.5 8.3 3 7.6 7.6 24.2 7 24.8-0.2 0.2-2.8-2.6-5.8-6.2-5.5-6.5-26.1-25.6-26.8-24.8-1.3 1.2 6.7 12.2 16 22.1 10.2 10.9 12.4 13.801 9.6 12.9-0.7-0.2-4.4-1.3-8.3-2.5-18.6-5.9-34.4-18-41.1-31.4-4-8.199-6.3-19.3-6.4-30.899 0-4.3-0.7-11.3-1.6-15.5-2.4-11.8-8.9-26.101-10.9-24.101-0.2 0.301 1.1 7.9 2.9 16.9 1.8 9.1 3.2 16.7 2.9 16.9-0.7 0.899-14.4-13.4-18.1-18.9-5.1-7.6-9.8-20.9-11.2-31.3-1.9-13.7 0.9-28.9 6.5-36.3 1.9-2.5 2.1-3.301 1.1-3.7-2.1-0.8-8 1-11.1 3.5l-2.8 2.1 1.2-2.1c0.6-1.101 4.3-4.9 8.2-8.4 6.5-5.8 7.7-7.399 14.5-21 7.7-15.399 13.1-24.5 15.8-26.7 1.4-1.199 3.1-0.8 11.9 3.101 16.3 7.3 30.9 11.2 54.2 14.5 18.3 2.5 71.4 2.6 89 0 26.9-3.9 42.2-7.601 68.501-16.601 9.6-3.3 18.199-6 19-6 0.803 3e-3 3.202 2.603 5.202 5.803z" fill="#fff"/> <path d="m431.21 635.35c2.2 4.2 5.6 13.9 8.6 24.8 6.5 23.5 9.9 31.4 13.7 31.4 1 0 0.8-1.4-0.7-5.8-2.899-8.4-4.899-15.2-4.399-15.2 0.3 0 1.399 1.9 2.6 4.1 3.2 6.301 10.7 13.301 16.4 15.2 5.399 1.9 16 2.2 20.1 0.7l2.7-1.1-0.7 5.399c-0.9 8.3-4.3 18-8.2 23.8l-3.5 5.2 7 6.601c6.7 6.3 10.101 11.699 10.101 16.1 0 1.7-0.601 2-3.9 2h-3.8l-0.7 7.5c-1.4 15.4-7.5 32-16.5 45.4-3.9 5.8-23 26.5-23.7 25.8-0.2-0.2 0.9-3.2 2.3-6.7 4.7-11.4 16.101-48.1 15-47.8-1.699 0.5-8.699 14.8-17.3 35.3-7 16.7-17.2 36.6-19.5 38-0.5 0.4-2.3-0.5-4.1-2-8.101-6.8-23.2-11.9-38.601-13.1-10.699-0.801-24.1 1.399-35 5.6-4.199 1.6-7.699 2.8-7.699 2.7-4.301-7.3-7.5-20-7.5-30.4 0-6.3 2.1-20.1 4.6-29.8 0.7-2.8 0.6-2.9-1-1.6-2.7 2.3-5.4 8.3-8.2 18.3-2.2 7.8-2.7 12.1-3.1 26.5-0.3 9.5-0.9 17.3-1.4 17.3-2 0-9.3-12.7-13-22.5-1.1-3.1-2.6-5.4-3.2-5.2-1.199 0.4-1.6 2.101-4.1 19.2-0.899 6-1.899 12.7-2.2 14.9-0.6 3.6-0.8 3.8-3.5 3.199-1.6-0.3-7-2.1-12.1-4-5.1-1.899-9.4-3.399-9.6-3.199-0.101 0.199 0.199 1.6 0.799 3.1 0.601 1.5 0.801 3 0.5 3.3-0.299 0.3-2.899-0.2-5.799-1.1-11.4-3.601-24.701-15.101-31.701-27.5-3.6-6.4-4.9-7.2-7-4.7-2.2 2.7-1.7 8.9 1.1 12.6 6 8.101 3.4 7.301-5.1-1.5-7.2-7.399-11.4-14.3-14-22.699-1.4-4.601-2.7-7.2-4.2-8-2.1-1.101-2.1-1-1.5 4.699 0.4 3.301 1 7.7 1.3 9.9l0.7 4-5.2-5c-5-4.8-13.8-16.9-19.3-26.5-2.8-4.8-8.8-11.1-8.8-9.2 0 2.8 6.4 18.101 10.4 25.101 6.2 10.5 12.9 18.5 21.3 25.6 4 3.2 7.1 6 6.9 6.2-0.1 0.1-5.4-1.4-11.7-3.3-14.3-4.5-29.5-5.601-42.9-3l-8.4 1.6-7.2-5.6c-31.3-23.9-54.7-67.2-51.9-95.7l0.7-7-5.6 0.6c-3.1 0.3-5.6 0.3-5.6 0.101 0-1.601 4.5-8.7 8.6-13.4 7-8.2 16.4-20.7 16.4-21.9 0-1.399-0.1-1.399-5.6 0.9-2.6 1.1-4.8 1.9-5 1.7-0.4-0.4 6.3-21.3 7.5-23.5 0.4-0.7 2.1 2 4.2 7 9.5 22.6 23.9 38.7 43.5 48.6 15.5 7.8 37.9 10 54.7 5.2 7.8-2.3 12.7-9.3 12.7-18.4 0-3.899 1-4.5 3.1-2 2.1 2.601 8.9 5.7 17.4 7.9 7.4 1.9 8.2 2.3 10.9 6.4 1.6 2.399 4.3 4.899 6.2 5.699 4.8 2 13.8 1.7 22.101-0.699l7.199-2.2 5.301 2.3c7.6 3.3 16.399 2.5 26.1-2.3 9.899-4.9 26.7-18.5 42.2-34.2 14.3-14.4 16.6-16.3 24-19 14-5.1 26.3-13.2 29.5-19.5 1.3-2.5 2-5.9 2-9.5 0-5.3 0.1-5.5 2.3-5 1.6 0.4 2.899 0 4.1-1.4 1.101-1.199 2.2-2.1 2.601-2.1 0.397-2e-3 2.397 3.098 4.297 6.798z" fill="#fff"/> <path d="m196.41 828.95c18.2 4.899 37.9 17.5 43.9 28 4.9 8.5 4 14.8-3.1 20.199-4.4 3.4-19.5 10.4-40.6 18.9-18.4 7.4-25.3 8.7-32.2 6.2-5.8-2.101-7.7-5.2-8.3-14-0.7-11.8 2.7-23.9 9.8-34.3 2.2-3.2 3.7-6 3.5-6.2-0.7-0.7-5.4 3.399-8.7 7.5-7.4 9.3-10.8 19.8-10.8 33.3 0 9.9-0.7 12-4.2 12-8.6 0-14.9-12.7-16.6-33.4-0.8-9.699-2.3-10.5-6.1-3.1-2.2 4.3-2.6 6.3-2.6 14.5 0 5.2 0.3 11 0.7 12.7 1.1 5-1.4 4.2-4.5-1.5-5.7-10.4-5.7-23 0-33.4 7.2-13.3 29.6-25.6 52.3-28.899 7.1-1 21.2-0.3 27.5 1.5z" fill="#fff"/> <path d="m401.21 837.95c19.3 6.199 34.7 22.8 39.3 42.199 4.5 19.4-5.9 35.601-22.1 34.2l-4-0.3 0.399-16c0.4-16.2-0.399-26.5-1.899-26.5-0.9 0-1.301 2.2-3 19.2-1.4 13.399-3.301 19.899-7.101 24.3-3 3.4-5.8 4.3-9.399 2.9-1.5-0.601-1.601-2.301-1-16.801 0.8-18.1 0-19.399-3.5-5.699-4.801 19.1-10.7 24.399-23.301 20.699-6.3-1.8-11.6-6.899-13.8-13.199-1.5-4.4-1.8-15.801-0.7-24.9 0.7-5.5 0.7-5.8-0.699-4-4.301 5.6-6.5 21.4-4.5 33 0.699 4.2 1.1 7.8 0.8 8.1-0.9 0.801-13.5-2.399-17.601-4.5-4.8-2.5-9.6-7.699-11.1-12-1.6-4.8-1.4-16.8 0.4-22.899 4.8-16.2 24.199-32.4 45.6-38.2 6.1-1.7 9.6-1.9 19.9-1.6 7.401 0.3 14.501 1.1 17.301 2z" fill="#fff"/> <path d="m125.81 879.25c-0.1 8.3-0.3 9.1-1 5.3-0.7-4.1-0.2-15 0.7-15 0.2 0 0.3 4.4 0.3 9.7z" fill="#fff"/> <path d="m318.21 289.25c-3.4 0.7-7.9 5.7-9.9 10.8-0.899 2.5-1.5 4.8-1.2 5 0.301 0.3 2.9-1 5.801-3 4.3-2.9 6.1-3.5 10.399-3.5 6.3 0 12.4 3.6 17 10 4.8 6.5 6.4 4.4 2.5-3.3-5.8-11.6-15.5-17.9-24.6-16z"/> <path d="m155.41 296.85c-4.3 2.4-10.5 10.6-10.5 13.9 0 1.7 0.5 1.5 4.1-1.6 7.8-6.7 14.3-8.1 22.8-5.1 3.1 1.1 4.1 1.1 4.1 0.2 0-3.9-8.3-9.7-13.7-9.7-1.5 0-4.6 1-6.8 2.3z"/> <path d="m319.61 316.95c-11.3 4.1-16.399 13.8-18.2 35.1-0.699 7.8 0.301 18.3 2.601 26.7l0.899 3.7 7.601-3.9c11.1-5.7 19.2-7.3 36.6-7.4 8-0.1 14.9-0.4 15.301-0.8 0.699-0.6-8.5-3.8-11.101-3.8-0.8 0-1-1.2-0.7-4 0.7-4.8-0.699-5.2-3.699-1-1.2 1.7-2.9 3.4-3.9 4-1.6 0.8-1.6 0.5 0.3-3.3 2.8-5.6 2.7-15.9-0.3-24.2-2.6-7.5-2.6-8.2 0.2-8.9 2.3-0.5 4.7-4.2 4.7-7.2 0-2.6-3.101-2.9-5-0.5l-1.601 2.3-4.899-3.1c-4.801-3-10.4-5.1-13.5-5.1-0.802 0.1-3.201 0.7-5.302 1.4z"/> <path d="m323.41 324.75c-4.9 2.5-8.2 5.4-10.601 9.3-2.2 3.5-2.6 1.7-0.5-2.3 1.9-3.8 4.8-6.2 9.3-7.8 5.601-1.9 6.401-1.6 1.801 0.8z" fill="#fff"/> <path d="m153.51 322.65c-5.4 1.9-6 1.9-7.7 0.3-2.7-2.5-4.1-1.4-2.4 2 2.1 3.9 1.9 4.4-1.2 4.8-3.8 0.4-3.9 2.7-0.6 8.1l2.9 4.5 2.3-4c1.2-2.1 3.7-4.8 5.4-5.8 3.4-2.1 8.2-2.6 9.2-1 0.3 0.5-0.2 1-1.2 1-9.4 0-17.3 19.9-14.4 35.8 0.7 3.7 1.7 7.3 2.3 8.2 0.6 0.8-0.1 0.2-1.6-1.3-1.6-1.7-2.6-4-2.6-5.8 0-3.2-1.1-3.7-3-1.4-1.8 2.2-0.4 8.1 2.6 10.4l2.5 1.9-5.8 1.7c-3.2 0.9-6.5 1.9-7.3 2.2-3.1 1.3 2.1 1.5 8.6 0.4 8.4-1.5 26.4-1.5 33.4 0 3 0.6 7.6 2.2 10.3 3.5l4.7 2.4 0.2-7.2c0.7-32.6-5.2-52.2-17.9-59-6.9-3.7-11.6-4.1-18.7-1.7z"/> <path d="m173.71 347.75c0.7 0.7 1.2 2.4 1.2 3.8 0 5.1-5.2 6.9-7.2 2.5-0.9-1.9-0.8-2.9 0.6-5 1.8-2.7 3.5-3.2 5.4-1.3z" fill="#fff"/> <path d="m237.31 393.65c-1.7 0.5-3.7 1.6-4.4 2.5-1.2 1.3-1 1.5 1.1 1 1.3-0.3 5.8-1 9.9-1.7 5.5-0.9 7-1.4 5.5-2-2.6-1-8.2-0.9-12.1 0.2z"/> <path d="m339.71 395.65c-3.101 0.4-8.5 1.5-12 2.4-7.101 1.899-25.6 9.3-26.4 10.7-0.3 0.399 1.801-0.101 4.8-1.301 18.5-7.399 27.801-9.6 49.301-11.699l9-0.9h-9.5c-5.201 0-12.101 0.3-15.201 0.8z"/> <path d="m345.01 406.65c-5.2 0.5-13.3 1.601-18 2.4-8.8 1.6-23.399 5.5-22.8 6.1 0.199 0.2 5.3-0.7 11.3-2.1 14.3-3.2 32.3-5.5 43.2-5.5 4.8 0 9.399-0.5 10.2-1 1.8-1.2-10-1.101-23.9 0.1z"/> <path d="m252.11 412.55c-2.4 2.2-5.9 4.2-7.6 4.6-3.7 0.601-9.8-1.5-13.3-4.8-1.3-1.2-2.6-1.9-2.9-1.6-1 1 1.6 4.8 6.3 9.3l4.5 4.399-0.4 6.5c-0.3 5.2-0.9 7.101-2.8 9.2-7.6 8.101-17.4 7.3-35.3-2.7-5.4-3-5.6-1.8-0.5 3 5.7 5.5 12.6 9 20.7 10.5 6.4 1.2 6.6 1.301 10.6 7.101 4.6 6.8 9.5 10.5 13.8 10.5 5.2 0 11.5-3.8 15.6-9.4 4.9-6.6 5.7-7.2 12.6-9.6 3.201-1.101 8.601-3.601 12.101-5.5 3.399-1.9 7.601-3.5 9.399-3.5 4.301 0 3.5-1.9-1.899-4.7l-4.399-2.2-2.101 3.2c-4.8 7.2-23.899 10.7-33.1 6.2-4.9-2.4-8.5-8.9-8.5-15.2 0-3.9 0.4-4.5 3.9-6.9 5.1-3.399 11.3-12.5 8.4-12.399-0.501 0.099-2.801 1.898-5.101 3.999z"/> <path d="m251.41 456.94c2.3 1.7 1.4 4.2-2 5.801-2.2 1-3.2 0.899-6-0.601-3.4-1.899-5-4.1-3.9-5.7 0.8-1.399 9.8-1.099 11.9 0.5z" fill="#fff"/> <path d="m231.91 470.45c0 1.8 4.5 6.399 7.6 7.699 7.1 3 15.1 1.2 19.3-4.199 3.2-4.101 2.5-4.7-2.2-1.9-6 3.4-13.6 3.5-20.1 0-2.5-1.3-4.6-2.1-4.6-1.6z"/> <path d="m315.11 560.35c-1.5 8.9-3.399 13.3-7.899 18.3-5.1 5.7-10.4 8.101-18.801 8.601-9.899 0.6-10.6 1-7.1 3.8l2.9 2.3-6.2 2.7c-3.3 1.5-6.101 3.1-6.101 3.5 0 1.2 3.601 4 5.101 4 0.8 0 3.7-1.1 6.601-2.4 2.799-1.399 8.6-3.399 12.799-4.5 10.301-2.899 21.101-8.199 26.801-13.1 2.6-2.3 4.7-4.5 4.7-5 0-0.4-3.5 1.2-7.7 3.6-4.3 2.4-8.101 4.4-8.4 4.4-0.399 0 0.601-2.4 2.101-5.3 1.6-2.8 3.399-8.2 3.899-11.8 1.101-6.5 0.5-15.9-0.899-15.9-0.401-1e-3 -1.201 3.099-1.802 6.799z"/> <path d="m361.91 720.15c-7.4 5-16 15.801-19.4 24.301-2.1 5.3-3.4 17.1-1.9 17.1 0.601 0 1.4-1.7 1.801-3.8 1.6-9.101 8.399-21.601 18-33.5 2.6-3.101 4.5-5.7 4.3-5.7s-1.501 0.699-2.801 1.599z"/> <path d="m30.711 408.25c1.2 0.199 3 0.199 4 0 0.9-0.301-0.1-0.5-2.3-0.4-2.2 0-3 0.2-1.7 0.4z"/> <path d="m336.28 339.03c0.699 0.7 1.199 2.4 1.199 3.8 0 5.101-5.199 6.899-7.199 2.5-0.9-1.9-0.801-2.9 0.6-5 1.801-2.701 3.5-3.201 5.4-1.3z" fill="#fff"/> </svg>